<?xml version="1.0" standalone="no"?>
<!DOCTYPE svg PUBLIC "-//W3C//DTD SVG 20010904//EN"
 "http://www.w3.org/TR/2001/REC-SVG-20010904/DTD/svg10.dtd">
<svg version="1.0" xmlns="http://www.w3.org/2000/svg"
 width="60.000000pt" height="60.000000pt" viewBox="0 0 600.000000 600.000000"
 preserveAspectRatio="xMidYMid meet">

<g transform="translate(0.000000,600.000000) scale(0.100000,-0.100000)"
fill="#000000" stroke="none">
<path d="M2274 4971 c-108 -27 -200 -157 -278 -393 -44 -131 -63 -226 -72
-356 l-7 -103 -92 -92 c-77 -78 -98 -107 -137 -187 -45 -93 -78 -207 -78 -271
0 -18 7 -62 16 -98 13 -50 14 -69 5 -83 -6 -10 -21 -44 -34 -76 -30 -76 -32
-259 -4 -310 l18 -33 -35 -72 c-46 -93 -66 -174 -66 -262 0 -80 13 -134 38
-166 18 -21 18 -24 -4 -83 -29 -80 -48 -208 -40 -268 l7 -48 -48 0 c-66 0 -97
-18 -101 -56 -4 -42 35 -87 96 -111 45 -17 119 -18 1532 -18 l1485 0 46 22
c56 26 89 65 89 104 0 44 -23 59 -92 59 l-60 0 6 53 c8 64 -9 181 -38 263
l-22 61 22 32 c58 84 47 258 -25 408 l-41 84 20 59 c33 99 23 208 -30 326 -26
58 -27 63 -12 95 11 23 15 63 15 124 -1 171 -81 336 -228 473 l-75 70 0 64 c0
201 -88 495 -196 660 -105 157 -238 177 -396 58 -57 -43 -123 -113 -206 -219
-17 -22 -21 -23 -68 -13 -94 20 -226 25 -319 12 -50 -7 -99 -13 -111 -14 -14
-1 -39 22 -82 76 -134 168 -288 257 -398 229z m139 -202 c78 -51 178 -171 247
-297 29 -51 56 -60 107 -35 28 13 39 25 41 45 3 26 6 26 89 33 124 11 271 -3
258 -24 -9 -16 27 -51 62 -60 50 -14 69 0 121 86 88 148 231 283 299 283 69 0
142 -115 202 -316 39 -135 55 -247 49 -355 l-5 -89 56 -47 c96 -80 142 -126
180 -183 74 -109 77 -158 9 -132 -52 19 -57 -1 -10 -51 44 -49 72 -96 72 -124
0 -10 -9 -31 -20 -48 -27 -41 -25 -66 10 -122 54 -84 71 -169 49 -246 -13 -50
-32 -55 -85 -26 -34 18 -46 21 -55 12 -10 -10 -2 -23 32 -60 57 -61 119 -154
146 -218 44 -105 52 -245 14 -245 -9 0 -31 16 -48 35 -35 38 -54 43 -72 21
-10 -11 -2 -32 38 -101 27 -48 59 -115 71 -149 24 -67 36 -193 26 -250 l-7
-36 -254 0 -255 0 0 403 c0 246 -4 416 -10 439 -6 21 -22 51 -37 68 -52 63
-18 60 -750 60 -658 0 -668 0 -702 -21 -49 -29 -68 -57 -80 -112 -7 -29 -11
-204 -11 -442 l0 -395 -255 0 -255 0 -6 26 c-4 15 -4 65 -1 113 7 110 37 194
127 350 14 26 17 38 8 48 -18 22 -40 15 -79 -23 -21 -20 -42 -33 -48 -30 -15
10 -14 111 3 172 21 79 80 183 146 256 33 36 60 73 60 82 0 22 -32 20 -63 -4
-62 -49 -103 -1 -94 108 4 50 15 85 48 149 l42 84 -21 45 c-12 24 -22 52 -22
62 0 21 41 85 83 130 24 25 28 35 19 44 -10 10 -17 10 -32 0 -50 -31 -68 -8
-39 50 48 96 131 191 231 268 l45 35 -5 110 c-7 167 37 353 124 526 67 135
117 158 207 98z m1195 -1903 c18 -24 19 -42 16 -373 -1 -191 -3 -365 -3 -385
l-1 -38 -635 0 -635 0 0 394 0 395 22 15 c20 14 95 16 619 16 l598 0 19 -24z"/>
<path d="M2512 3750 c-50 -30 -74 -76 -69 -131 5 -61 36 -103 91 -124 38 -14
50 -15 83 -5 67 22 103 69 103 137 0 73 -68 143 -140 143 -19 0 -50 -9 -68
-20z m96 -42 c16 -16 15 -53 -3 -68 -19 -16 -45 -10 -61 15 -26 39 31 86 64
53z"/>
<path d="M3340 3762 c-57 -25 -90 -75 -90 -137 0 -101 102 -167 195 -126 107
47 114 189 13 251 -32 20 -88 25 -118 12z m80 -56 c28 -35 -11 -93 -47 -70
-36 22 -23 84 17 84 10 0 23 -7 30 -14z"/>
<path d="M2863 3495 c-65 -28 -73 -104 -18 -160 20 -19 47 -38 61 -41 22 -6
24 -10 18 -38 -9 -44 -32 -66 -70 -66 -23 0 -34 5 -39 19 -14 45 -67 52 -80
11 -9 -28 21 -83 56 -104 56 -33 142 -18 174 31 l16 24 40 -35 c33 -30 46 -36
85 -36 29 0 59 8 79 20 57 35 71 110 23 126 -17 5 -28 -1 -47 -25 -36 -43 -74
-42 -101 2 -28 45 -25 61 15 75 38 14 82 61 91 97 8 34 -22 84 -61 101 -45 18
-199 18 -242 -1z m155 -47 c-5 -15 -68 -22 -115 -13 -55 10 -27 25 48 25 52 0
70 -3 67 -12z"/>
<path d="M2563 2719 c-122 -89 -121 -112 6 -209 39 -30 71 -56 71 -59 0 -4
-34 -30 -75 -60 -81 -57 -100 -80 -90 -112 9 -27 48 -51 71 -43 10 4 55 35 99
68 187 140 188 150 32 266 l-58 43 55 39 c63 44 75 68 52 103 -28 42 -69 33
-163 -36z"/>
<path d="M2877 2762 c-23 -26 -21 -59 6 -82 12 -10 67 -50 122 -88 91 -62 100
-71 103 -103 3 -33 1 -35 -94 -88 -125 -70 -156 -96 -152 -129 2 -14 15 -34
30 -45 l26 -20 69 36 c130 67 218 124 230 148 17 33 16 153 -1 187 -18 35
-265 202 -299 202 -13 0 -31 -8 -40 -18z"/>
<path d="M3272 2698 c-26 -26 -12 -60 55 -135 l66 -74 -66 -67 c-37 -37 -67
-76 -67 -85 0 -36 20 -57 52 -57 27 0 47 15 125 93 51 51 93 101 93 110 0 10
-43 64 -96 122 -77 84 -101 105 -123 105 -15 0 -32 -5 -39 -12z"/>
</g>
</svg>
