<svg aria-roledescription="gitGraph" role="graphics-document document" viewBox="-107 -49 665 459" height="100%" xmlns="http://www.w3.org/2000/svg" width="665" id="graph-div" style="max-width: 100%;" xmlns:xlink="http://www.w3.org/1999/xlink"><style>@import url("https://cdnjs.cloudflare.com/ajax/libs/font-awesome/6.2.0/css/all.min.css");'</style><style>#graph-div{font-family:"trebuchet ms",verdana,arial,sans-serif;font-size:12px;fill:#333;}#graph-div .error-icon{fill:hsl(60, 90%, 100%);}#graph-div .error-text{fill:rgb(0, 0, 0);stroke:rgb(0, 0, 0);}#graph-div .edge-thickness-normal{stroke-width:2px;}#graph-div .edge-thickness-thick{stroke-width:3.5px;}#graph-div .edge-pattern-solid{stroke-dasharray:0;}#graph-div .edge-pattern-dashed{stroke-dasharray:3;}#graph-div .edge-pattern-dotted{stroke-dasharray:2;}#graph-div .marker{fill:#0b0b0b;stroke:#0b0b0b;}#graph-div .marker.cross{stroke:#0b0b0b;}#graph-div svg{font-family:"trebuchet ms",verdana,arial,sans-serif;font-size:12px;}#graph-div .commit-id,#graph-div .commit-msg,#graph-div .branch-label{fill:lightgrey;color:lightgrey;font-family:'trebuchet ms',verdana,arial,sans-serif;font-family:var(--mermaid-font-family);}#graph-div .branch-label0{fill:#333;}#graph-div .commit0{stroke:hsl(240, 90%, 71.0784313725%);fill:hsl(240, 90%, 71.0784313725%);}#graph-div .commit-highlight0{stroke:rgb(140.1250000002, 140.1250000002, 7.375);fill:rgb(140.1250000002, 140.1250000002, 7.375);}#graph-div .label0{fill:hsl(240, 90%, 71.0784313725%);}#graph-div .arrow0{stroke:hsl(240, 90%, 71.0784313725%);}#graph-div .branch-label1{fill:#333;}#graph-div .commit1{stroke:hsl(240, 22.2222222222%, 67.9411764706%);fill:hsl(240, 22.2222222222%, 67.9411764706%);}#graph-div .commit-highlight1{stroke:rgb(99.9166666666, 99.9166666666, 63.5833333333);fill:rgb(99.9166666666, 99.9166666666, 63.5833333333);}#graph-div .label1{fill:hsl(240, 22.2222222222%, 67.9411764706%);}#graph-div .arrow1{stroke:hsl(240, 22.2222222222%, 67.9411764706%);}#graph-div .branch-label2{fill:#333;}#graph-div .commit2{stroke:hsl(60, 90%, 75%);fill:hsl(60, 90%, 75%);}#graph-div .commit-highlight2{stroke:rgb(6.375, 6.375, 121.125);fill:rgb(6.375, 6.375, 121.125);}#graph-div .label2{fill:hsl(60, 90%, 75%);}#graph-div .arrow2{stroke:hsl(60, 90%, 75%);}#graph-div .branch-label3{fill:#333;}#graph-div .commit3{stroke:hsl(210, 90%, 71.0784313725%);fill:hsl(210, 90%, 71.0784313725%);}#graph-div .commit-highlight3{stroke:rgb(140.1250000002, 73.7500000001, 7.375);fill:rgb(140.1250000002, 73.7500000001, 7.375);}#graph-div .label3{fill:hsl(210, 90%, 71.0784313725%);}#graph-div .arrow3{stroke:hsl(210, 90%, 71.0784313725%);}#graph-div .branch-label4{fill:#333;}#graph-div .commit4{stroke:hsl(180, 90%, 71.0784313725%);fill:hsl(180, 90%, 71.0784313725%);}#graph-div .commit-highlight4{stroke:rgb(140.1250000002, 7.375, 7.375);fill:rgb(140.1250000002, 7.375, 7.375);}#graph-div .label4{fill:hsl(180, 90%, 71.0784313725%);}#graph-div .arrow4{stroke:hsl(180, 90%, 71.0784313725%);}#graph-div .branch-label5{fill:#333;}#graph-div .commit5{stroke:hsl(150, 90%, 71.0784313725%);fill:hsl(150, 90%, 71.0784313725%);}#graph-div .commit-highlight5{stroke:rgb(140.1250000002, 7.375, 73.7500000001);fill:rgb(140.1250000002, 7.375, 73.7500000001);}#graph-div .label5{fill:hsl(150, 90%, 71.0784313725%);}#graph-div .arrow5{stroke:hsl(150, 90%, 71.0784313725%);}#graph-div .branch-label6{fill:#333;}#graph-div .commit6{stroke:hsl(300, 90%, 71.0784313725%);fill:hsl(300, 90%, 71.0784313725%);}#graph-div .commit-highlight6{stroke:rgb(7.375, 140.1250000002, 7.375);fill:rgb(7.375, 140.1250000002, 7.375);}#graph-div .label6{fill:hsl(300, 90%, 71.0784313725%);}#graph-div .arrow6{stroke:hsl(300, 90%, 71.0784313725%);}#graph-div .branch-label7{fill:#333;}#graph-div .commit7{stroke:hsl(0, 90%, 71.0784313725%);fill:hsl(0, 90%, 71.0784313725%);}#graph-div .commit-highlight7{stroke:rgb(7.375, 140.1250000002, 140.1250000002);fill:rgb(7.375, 140.1250000002, 140.1250000002);}#graph-div .label7{fill:hsl(0, 90%, 71.0784313725%);}#graph-div .arrow7{stroke:hsl(0, 90%, 71.0784313725%);}#graph-div .branch{stroke-width:1;stroke:#0b0b0b;stroke-dasharray:2;}#graph-div .commit-label{font-size:10px;fill:#16160e;}#graph-div .commit-label-bkg{font-size:10px;fill:#E9E9F1;opacity:0.5;}#graph-div .tag-label{font-size:10px;fill:#333;}#graph-div .tag-label-bkg{fill:#ECECFE;stroke:#BCBCFB;}#graph-div .tag-hole{fill:#333;}#graph-div .commit-merge{stroke:#ECECFE;fill:#ECECFE;}#graph-div .commit-reverse{stroke:#ECECFE;fill:#ECECFE;stroke-width:3;}#graph-div .commit-highlight-inner{stroke:#ECECFE;fill:#ECECFE;}#graph-div .arrow{stroke-width:8;stroke-linecap:round;fill:none;}#graph-div .gitTitleText{text-anchor:middle;font-size:18px;fill:#333;}#graph-div :root{--mermaid-font-family:"trebuchet ms",verdana,arial,sans-serif;}</style><g></g><g class="commit-bullets"></g><g class="commit-labels"></g><g><line class="branch branch0" y2="0" x2="550" y1="0" x1="0"></line><rect transform="translate(-19, -6.75)" height="17.5" width="64.03125" y="1.25" x="-80.03125" ry="4" rx="4" class="branchLabelBkg label0"></rect><g class="branchLabel"><g transform="translate(-90.03125, -7.75)" class="label branch-label0"><text><tspan class="row" x="0" dy="1em" xml:space="preserve">release1</tspan></text></g></g><line class="branch branch1" y2="90" x2="550" y1="90" x1="0"></line><rect transform="translate(-19, 83.25)" height="17.5" width="54.837890625" y="1.25" x="-70.837890625" ry="4" rx="4" class="branchLabelBkg label1"></rect><g class="branchLabel"><g transform="translate(-80.837890625, 82.25)" class="label branch-label1"><text><tspan class="row" x="0" dy="1em" xml:space="preserve">master</tspan></text></g></g><line class="branch branch2" y2="180" x2="550" y1="180" x1="0"></line><rect transform="translate(-19, 173.25)" height="17.5" width="60.0390625" y="1.25" x="-76.0390625" ry="4" rx="4" class="branchLabelBkg label2"></rect><g class="branchLabel"><g transform="translate(-86.0390625, 172.25)" class="label branch-label2"><text><tspan class="row" x="0" dy="1em" xml:space="preserve">develop</tspan></text></g></g><line class="branch branch3" y2="270" x2="550" y1="270" x1="0"></line><rect transform="translate(-19, 263.25)" height="17.5" width="63.380859375" y="1.25" x="-79.380859375" ry="4" rx="4" class="branchLabelBkg label3"></rect><g class="branchLabel"><g transform="translate(-89.380859375, 262.25)" class="label branch-label3"><text><tspan class="row" x="0" dy="1em" xml:space="preserve">featureA</tspan></text></g></g><line class="branch branch4" y2="360" x2="550" y1="360" x1="0"></line><rect transform="translate(-19, 353.25)" height="17.5" width="63.3671875" y="1.25" x="-79.3671875" ry="4" rx="4" class="branchLabelBkg label4"></rect><g class="branchLabel"><g transform="translate(-89.3671875, 352.25)" class="label branch-label4"><text><tspan class="row" x="0" dy="1em" xml:space="preserve">featureB</tspan></text></g></g></g><g class="commit-arrows"><path class="arrow arrow4" d="M 10 90 L 10 340 A 20 20, 0, 0, 0, 30 360 L 60 360"></path><path class="arrow arrow3" d="M 10 90 L 10 250 A 20 20, 0, 0, 0, 30 270 L 110 270"></path><path class="arrow arrow4" d="M 60 360 L 160 360"></path><path class="arrow arrow3" d="M 110 270 L 210 270"></path><path class="arrow arrow2" d="M 10 90 L 10 160 A 20 20, 0, 0, 0, 30 180 L 260 180"></path><path class="arrow arrow3" d="M 210 270 L 240 270 A 20 20, 0, 0, 0, 260 250 L 260 180"></path><path class="arrow arrow0" d="M 10 90 L 10 20 A 20 20, 0, 0, 1, 30 0 L 310 0"></path><path class="arrow arrow3" d="M 210 270 L 290 270 A 20 20, 0, 0, 0, 310 250 L 310 0"></path><path class="arrow arrow4" d="M 160 360 L 360 360"></path><path class="arrow arrow2" d="M 260 180 L 410 180"></path><path class="arrow arrow4" d="M 360 360 L 390 360 A 20 20, 0, 0, 0, 410 340 L 410 180"></path><path class="arrow arrow0" d="M 310 0 L 460 0"></path><path class="arrow arrow4" d="M 360 360 L 440 360 A 20 20, 0, 0, 0, 460 340 L 460 0"></path><path class="arrow arrow1" d="M 10 90 L 510 90"></path><path class="arrow arrow0" d="M 460 0 L 490 0 A 20 20, 0, 0, 1, 510 20 L 510 90"></path></g><g class="commit-bullets"><circle class="commit v1.0.0 commit1" r="10" cy="90" cx="10"></circle><circle class="commit do b1 commit4" r="10" cy="360" cx="60"></circle><circle class="commit do a1 commit3" r="10" cy="270" cx="110"></circle><circle class="commit do b2 commit4" r="10" cy="360" cx="160"></circle><circle class="commit do a2 commit3" r="10" cy="270" cx="210"></circle><circle class="commit deploy uat 1 commit2" r="9" cy="180" cx="260"></circle><circle class="commit commit-merge deploy uat 1 commit2" r="6" cy="180" cx="260"></circle><circle class="commit deploy prod 1 commit0" r="9" cy="0" cx="310"></circle><circle class="commit commit-merge deploy prod 1 commit0" r="6" cy="0" cx="310"></circle><circle class="commit do b3 commit4" r="10" cy="360" cx="360"></circle><circle class="commit deploy uat 2 commit2" r="9" cy="180" cx="410"></circle><circle class="commit commit-merge deploy uat 2 commit2" r="6" cy="180" cx="410"></circle><circle class="commit deploy prod 2 commit0" r="9" cy="0" cx="460"></circle><circle class="commit commit-merge deploy prod 2 commit0" r="6" cy="0" cx="460"></circle><circle class="commit v2.0.0 commit1" r="9" cy="90" cx="510"></circle><circle class="commit commit-merge v2.0.0 commit1" r="6" cy="90" cx="510"></circle></g><g class="commit-labels"><g transform="translate(-21.65203125, 19.26234375) rotate(-45, 0, 90)"><rect height="15" width="31.2421875" y="103.5" x="-5.62109375" class="commit-label-bkg"></rect><text class="commit-label" y="115" x="-3.62109375">v1.0.0</text></g><g transform="translate(-20.811875, 18.510624999999997) rotate(-45, 50, 360)"><rect height="15" width="29.03125" y="373.5" x="45.484375" class="commit-label-bkg"></rect><text class="commit-label" y="385" x="47.484375">do b1</text></g><g transform="translate(-20.811875, 18.510624999999997) rotate(-45, 100, 270)"><rect height="15" width="29.03125" y="283.5" x="95.484375" class="commit-label-bkg"></rect><text class="commit-label" y="295" x="97.484375">do a1</text></g><g transform="translate(-20.811875, 18.510624999999997) rotate(-45, 150, 360)"><rect height="15" width="29.03125" y="373.5" x="145.484375" class="commit-label-bkg"></rect><text class="commit-label" y="385" x="147.484375">do b2</text></g><g transform="translate(-20.811875, 18.510624999999997) rotate(-45, 200, 270)"><rect height="15" width="29.03125" y="283.5" x="195.484375" class="commit-label-bkg"></rect><text class="commit-label" y="295" x="197.484375">do a2</text></g><g transform="translate(-32.00703125, 28.52734375) rotate(-45, 250, 180)"><rect height="15.1044921875" width="58.4921875" y="193.5" x="230.75390625" class="commit-label-bkg"></rect><text class="commit-label" y="205" x="232.75390625">deploy uat 1</text></g><g transform="translate(-34.32859375, 30.604531249999997) rotate(-45, 300, 0)"><rect height="15.1044921875" width="64.6015625" y="13.5" x="277.69921875" class="commit-label-bkg"></rect><text class="commit-label" y="25" x="279.69921875">deploy prod 1</text></g><g transform="translate(-20.811875, 18.510624999999997) rotate(-45, 350, 360)"><rect height="15" width="29.03125" y="373.5" x="345.484375" class="commit-label-bkg"></rect><text class="commit-label" y="385" x="347.484375">do b3</text></g><g transform="translate(-32.00703125, 28.52734375) rotate(-45, 400, 180)"><rect height="15.1044921875" width="58.4921875" y="193.5" x="380.75390625" class="commit-label-bkg"></rect><text class="commit-label" y="205" x="382.75390625">deploy uat 2</text></g><g transform="translate(-34.32859375, 30.604531249999997) rotate(-45, 450, 0)"><rect height="15.1044921875" width="64.6015625" y="13.5" x="427.69921875" class="commit-label-bkg"></rect><text class="commit-label" y="25" x="429.69921875">deploy prod 2</text></g><g transform="translate(-21.65203125, 19.26234375) rotate(-45, 500, 90)"><rect height="15" width="31.2421875" y="103.5" x="494.37890625" class="commit-label-bkg"></rect><text class="commit-label" y="115" x="496.37890625">v2.0.0</text></g></g><text class="gitTitleText" y="-25" x="225.484375">Implementing Features and Handling Releases diagram</text></svg>